<svg width="266" height="266" viewBox="0 0 266 266" fill="none" xmlns="http://www.w3.org/2000/svg">
    <path
        d="M132.984 72.4401V132.984H132.771C127.886 132.984 123 132.771 118.114 132.134C51.6216 124.699 0 68.4039 0 0H60.5438C60.5438 40.1501 93.0463 72.6525 133.196 72.6525L132.984 72.4401Z"
        fill="#E4E4E4" />
    <path
        d="M132.984 204.575V265.118C59.4817 265.118 0 205.637 0 132.134H60.5438C60.5438 172.284 93.0463 204.787 133.196 204.787L132.984 204.575Z"
        fill="#E4E4E4" />
    <path
        d="M265.755 72.4401V132.984H265.543C260.657 132.984 255.771 132.771 250.885 132.134C184.393 124.699 132.771 68.4039 132.771 0H193.315C193.315 40.1501 225.818 72.6525 265.968 72.6525L265.755 72.4401Z"
        fill="#E4E4E4" />
    <path
        d="M265.755 204.575V265.118C192.253 265.118 132.771 205.637 132.771 132.134H193.315C193.315 172.284 225.818 204.787 265.968 204.787L265.755 204.575Z"
        fill="#E4E4E4" />
</svg>