<svg width="86" height="86" viewBox="0 0 86 86" fill="none" xmlns="http://www.w3.org/2000/svg">
    <path
        d="M42.984 23.4146V42.984H42.9153C41.336 42.984 39.7567 42.9153 38.1774 42.7093C16.6855 40.306 0 22.11 0 0H19.5694C19.5694 12.9776 30.075 23.4832 43.0526 23.4832L42.984 23.4146Z"
        fill="#8D1A81" />
    <path
        d="M42.984 66.1239V85.6933C19.2261 85.6933 0 66.4673 0 42.7094H19.5694C19.5694 55.6869 30.075 66.1926 43.0526 66.1926L42.984 66.1239Z"
        fill="#8D1A81" />
    <path
        d="M85.8992 23.4146V42.984H85.8306C84.2513 42.984 82.672 42.9153 81.0927 42.7093C59.6008 40.306 42.9153 22.11 42.9153 0H62.4847C62.4847 12.9776 72.9903 23.4832 85.9679 23.4832L85.8992 23.4146Z"
        fill="#8D1A81" />
    <path
        d="M85.8992 66.1239V85.6933C62.1413 85.6933 42.9153 66.4673 42.9153 42.7094H62.4847C62.4847 55.6869 72.9903 66.1926 85.9679 66.1926L85.8992 66.1239Z"
        fill="#8D1A81" />
</svg>
    