<svg width="57" height="57" viewBox="0 0 57 57" fill="none" xmlns="http://www.w3.org/2000/svg">
<path d="M28.484 15.516V28.484H28.4385C27.3919 28.484 26.3454 28.4385 25.2989 28.302C11.0569 26.7094 0 14.6515 0 0H12.9679C12.9679 8.59979 19.9297 15.5615 28.5295 15.5615L28.484 15.516Z" fill="#82C9C0"/>
<path d="M28.484 43.818V56.7859C12.7404 56.7859 0 44.0455 0 28.3019H12.9679C12.9679 36.9017 19.9297 43.8635 28.5295 43.8635L28.484 43.818Z" fill="#82C9C0"/>
<path d="M56.9224 15.516V28.484H56.8769C55.8304 28.484 54.7839 28.4385 53.7373 28.302C39.4954 26.7094 28.4385 14.6515 28.4385 0H41.4064C41.4064 8.59979 48.3682 15.5615 56.968 15.5615L56.9224 15.516Z" fill="#82C9C0"/>
<path d="M56.9224 43.818V56.7859C41.1789 56.7859 28.4385 44.0455 28.4385 28.3019H41.4064C41.4064 36.9017 48.3682 43.8635 56.968 43.8635L56.9224 43.818Z" fill="#82C9C0"/>
</svg>
