<?xml version="1.0" encoding="utf-8" ?>
<svg xmlns="http://www.w3.org/2000/svg" xmlns:xlink="http://www.w3.org/1999/xlink" width="1024" height="1024">
	<g>
		<path fill="#1A3B3C" d="M706.81 329.137C707.625 329.657 707.44 329.495 708.14 330.105C716.463 337.352 723.649 347.757 729.903 356.827Q732.536 360.591 735.04 364.443Q737.545 368.294 739.917 372.228Q742.29 376.162 744.528 380.173Q746.766 384.185 748.867 388.27Q750.969 392.356 752.931 396.51Q754.892 400.663 756.713 404.881Q758.533 409.099 760.209 413.376Q761.886 417.654 763.416 421.985Q764.947 426.316 766.331 430.697Q767.714 435.078 768.949 439.502Q770.183 443.927 771.267 448.392Q772.351 452.856 773.284 457.354Q774.216 461.852 774.996 466.379Q775.776 470.907 776.402 475.458Q777.028 480.009 777.5 484.578Q777.972 489.148 778.289 493.731Q778.542 496.952 778.716 500.179Q778.89 503.405 778.984 506.635Q779.078 509.865 779.092 513.096Q779.105 516.327 779.039 519.558Q778.973 522.788 778.827 526.016Q778.681 529.244 778.455 532.468Q778.23 535.691 777.924 538.908Q777.619 542.124 777.234 545.333Q776.848 548.541 776.384 551.738Q775.92 554.936 775.376 558.121Q774.833 561.307 774.211 564.477Q773.589 567.648 772.889 570.803Q772.189 573.957 771.41 577.093Q770.632 580.229 769.777 583.345Q768.921 586.461 767.989 589.555Q767.057 592.649 766.048 595.718Q765.039 598.788 763.955 601.832Q762.871 604.876 761.711 607.892Q760.552 610.908 759.319 613.895Q758.085 616.881 756.778 619.836Q755.471 622.791 754.091 625.713Q752.711 628.635 751.259 631.521Q749.808 634.408 748.285 637.258Q746.762 640.108 745.17 642.919Q743.577 645.731 741.915 648.502Q740.253 651.273 738.523 654.002Q736.793 656.731 734.996 659.417Q733.199 662.102 731.336 664.742Q729.474 667.382 727.546 669.976Q725.618 672.569 723.627 675.114Q721.636 677.658 719.582 680.153Q717.529 682.648 715.414 685.091C667.124 741.065 603.532 771.861 530.073 777.327C533.805 758.372 542.348 738.302 552.405 721.867C580.637 675.728 626.016 647.105 677.889 634.55C685.95 632.713 694.239 632.114 702.253 630.098C670.403 628.467 646.634 630.272 615.664 638.352C575.944 648.714 532.034 671.002 510.809 707.628C499.638 726.905 500.347 745.11 506.037 766.108C499.945 756.896 495.065 747.215 492.252 736.488Q491.531 733.783 490.978 731.039Q490.424 728.296 490.039 725.523Q489.655 722.751 489.441 719.96Q489.226 717.169 489.184 714.37Q489.141 711.572 489.269 708.775Q489.398 705.979 489.697 703.196Q489.997 700.413 490.466 697.654Q490.936 694.894 491.573 692.169C505.157 632.472 573.501 608.841 618.631 577.946C646.967 558.548 673.457 534.687 690.87 504.76C712.681 467.277 721.245 421.977 716.743 379C714.963 362.013 711.164 345.624 706.81 329.137Z"/>
		<path fill="#1A3B3C" d="M500.856 246.222Q510.061 245.668 519.27 246.132C510.428 251.156 502.05 257.302 494.077 263.595C458.814 291.43 433.949 326.765 411.789 365.428C405.043 377.197 398.351 388.896 392.412 401.098C392.773 392.937 394.12 384.712 395.373 376.65C400.752 342.035 411.51 309.577 422.764 276.56C359.818 349.077 344.298 453.643 348.61 546.603C345.47 540.028 343.206 532.853 340.713 526Q338.016 518.422 335.566 510.761Q333.116 503.099 330.917 495.362Q328.718 487.625 326.771 479.82Q324.825 472.016 323.133 464.152Q321.441 456.288 320.006 448.374Q318.571 440.459 317.394 432.502Q316.216 424.545 315.299 416.554Q314.381 408.563 313.723 400.546C311.011 415.349 307.85 429.802 306.386 444.817C300.841 501.693 312.116 560.409 333.413 613.148C358.218 672.658 393.021 720.042 435.119 768.34C426.053 764.009 416.07 761.23 406.783 757.273Q402.177 755.329 397.65 753.209Q393.122 751.09 388.68 748.798Q384.237 746.505 379.886 744.044Q375.535 741.583 371.281 738.956Q367.028 736.329 362.878 733.541Q358.729 730.753 354.69 727.807Q350.651 724.861 346.728 721.762Q342.806 718.663 339.005 715.416Q336.531 713.321 334.11 711.165Q331.688 709.01 329.32 706.796Q326.952 704.582 324.638 702.311Q322.325 700.04 320.068 697.714Q317.811 695.387 315.611 693.005Q313.411 690.624 311.271 688.189Q309.13 685.755 307.049 683.269Q304.969 680.783 302.949 678.247Q300.93 675.711 298.974 673.126Q297.017 670.541 295.124 667.909Q293.231 665.277 291.403 662.6Q289.575 659.923 287.813 657.202Q286.051 654.481 284.356 651.717Q282.662 648.954 281.035 646.15Q279.408 643.346 277.85 640.503Q276.292 637.66 274.804 634.78Q273.316 631.899 271.899 628.984Q270.482 626.068 269.137 623.118Q267.792 620.169 266.519 617.188Q265.246 614.206 264.046 611.194Q262.847 608.183 261.721 605.142Q260.596 602.102 259.545 599.036Q258.494 595.969 257.518 592.877Q256.542 589.786 255.643 586.672Q254.743 583.557 253.919 580.422Q253.096 577.286 252.349 574.131Q251.603 570.977 250.934 567.805Q250.265 564.633 249.673 561.445Q249.082 558.258 248.568 555.057Q248.055 551.856 247.62 548.644Q247.185 545.431 246.829 542.209Q246.472 538.987 246.195 535.757Q245.914 532.474 245.714 529.186Q245.514 525.897 245.394 522.605Q245.274 519.312 245.235 516.018Q245.196 512.723 245.238 509.429Q245.279 506.135 245.401 502.842Q245.524 499.55 245.727 496.262Q245.93 492.973 246.213 489.691Q246.496 486.408 246.86 483.134Q247.224 479.859 247.667 476.595Q248.111 473.33 248.635 470.077Q249.158 466.824 249.761 463.586Q250.364 460.346 251.047 457.123Q251.729 453.9 252.49 450.694Q253.251 447.489 254.09 444.303Q254.929 441.117 255.846 437.953Q256.763 434.788 257.758 431.647Q258.752 428.506 259.823 425.39Q260.894 422.274 262.04 419.186Q263.187 416.097 264.409 413.038Q265.632 409.978 266.928 406.949Q268.225 403.921 269.595 400.925Q270.966 397.928 272.409 394.967Q273.853 392.005 275.368 389.08Q276.884 386.155 278.471 383.267Q280.058 380.38 281.715 377.532Q283.372 374.685 285.098 371.878Q286.824 369.072 288.618 366.309Q290.413 363.546 292.275 360.828Q294.136 358.109 296.064 355.438Q297.991 352.766 299.984 350.142Q301.976 347.518 304.032 344.943Q306.088 342.369 308.207 339.846Q309.889 337.864 311.611 335.915Q313.332 333.966 315.091 332.051Q316.85 330.137 318.647 328.257Q320.443 326.377 322.277 324.534Q324.11 322.69 325.979 320.882Q327.848 319.075 329.753 317.305Q331.657 315.535 333.596 313.802Q335.535 312.07 337.508 310.376Q339.481 308.683 341.487 307.028Q343.492 305.374 345.53 303.759Q347.568 302.144 349.638 300.57Q351.707 298.996 353.807 297.462Q355.907 295.929 358.037 294.438Q360.167 292.946 362.325 291.497Q364.484 290.048 366.671 288.641Q368.858 287.235 371.072 285.872Q373.286 284.509 375.527 283.189Q377.767 281.87 380.034 280.595Q382.3 279.321 384.591 278.091Q386.881 276.861 389.196 275.676Q391.511 274.492 393.848 273.353Q396.186 272.214 398.545 271.122Q400.905 270.03 403.285 268.984Q405.666 267.938 408.066 266.939Q410.467 265.941 412.887 264.99Q415.307 264.039 417.745 263.135Q420.183 262.232 422.639 261.377Q425.094 260.522 427.566 259.715Q430.038 258.909 432.525 258.151Q435.013 257.394 437.514 256.685Q440.016 255.977 442.531 255.317Q445.046 254.658 447.574 254.049C465.156 249.841 482.862 247.705 500.856 246.222Z"/>
		<path fill="#1A3B3C" d="M610.469 292.215C623.775 291.496 636.608 292.712 649.739 294.717Q655.178 306.931 659.369 319.628Q663.559 332.325 666.458 345.377Q668.321 353.712 669.584 362.159Q670.847 370.606 671.504 379.121Q672.161 387.637 672.208 396.177Q672.255 404.718 671.692 413.24C670.55 429.018 668.255 444.544 663.1 459.559C647.169 505.96 608.196 542.806 568.433 569.52C533.564 592.945 487.882 617.439 465.149 653.741C454.204 671.221 448.524 691.791 453.212 712.261C444.357 702.877 437.53 686.039 433.914 673.81C417.868 619.549 445.878 583.319 490.608 556.615C509.645 545.251 529.986 536.261 548.658 524.23C580.168 503.927 608.668 478.445 626.597 445.091C651.038 399.622 649.907 355.249 635.341 307.032Q631.03 306.803 626.713 306.729Q622.396 306.654 618.08 306.734Q613.763 306.813 609.452 307.047Q605.141 307.281 600.842 307.668Q596.542 308.056 592.258 308.597Q587.975 309.138 583.714 309.831Q579.453 310.525 575.219 311.37Q570.985 312.215 566.784 313.211Q562.583 314.206 558.421 315.352Q554.258 316.497 550.139 317.79Q546.02 319.083 541.95 320.523Q537.879 321.962 533.863 323.546Q529.847 325.13 525.89 326.856Q521.933 328.582 518.04 330.448Q514.147 332.315 510.323 334.319Q506.499 336.323 502.749 338.463C480.459 351.043 461.006 367.216 443.793 386.118C407.878 425.556 386.169 479.141 381.619 532.054C380.585 544.081 380.723 556.23 381.299 568.275C384.399 633.109 413.93 697.258 457.459 744.933C468.357 756.869 480.641 766.827 492.548 777.662C492.408 777.631 492.267 777.604 492.128 777.571C482.723 775.312 469.765 777.994 462.044 771.244C451.545 762.066 442.018 750.038 433.349 739.112C402.381 700.081 379.413 652.872 370.51 603.678C367.968 589.628 366.913 575.575 365.928 561.349C365.422 554.046 366.022 546.485 366.355 539.175Q366.496 536.444 366.692 533.717Q366.889 530.99 367.143 528.268Q367.396 525.545 367.705 522.829Q368.015 520.112 368.38 517.402Q368.746 514.693 369.167 511.991Q369.589 509.289 370.066 506.597Q370.543 503.905 371.076 501.223Q371.609 498.541 372.197 495.871Q372.785 493.201 373.429 490.543Q374.072 487.886 374.77 485.242Q375.468 482.599 376.221 479.97Q376.973 477.341 377.78 474.729Q378.587 472.116 379.447 469.521Q380.308 466.926 381.222 464.349Q382.136 461.772 383.103 459.215Q384.07 456.657 385.09 454.12Q386.11 451.583 387.182 449.068Q388.254 446.553 389.378 444.06Q390.502 441.568 391.677 439.099Q392.852 436.63 394.078 434.186Q395.304 431.742 396.58 429.324Q397.856 426.906 399.182 424.514Q400.508 422.123 401.883 419.76Q403.258 417.396 404.682 415.062Q406.105 412.728 407.577 410.423Q409.049 408.119 410.567 405.845Q412.086 403.572 413.652 401.33Q415.218 399.089 416.829 396.88Q418.441 394.671 420.098 392.496Q421.755 390.321 423.456 388.181Q425.158 386.04 426.903 383.936Q428.648 381.831 430.437 379.763C478.406 324.661 538.103 297.216 610.469 292.215Z"/>
		<path fill="#1A3B3C" d="M498.195 394.817Q499.606 394.693 501.021 394.638Q502.436 394.583 503.853 394.596Q505.269 394.611 506.683 394.694Q508.096 394.777 509.505 394.929Q510.913 395.081 512.312 395.302Q513.711 395.523 515.097 395.811Q516.484 396.1 517.854 396.456Q519.225 396.812 520.577 397.235Q521.929 397.657 523.258 398.146Q524.588 398.634 525.892 399.186Q527.196 399.739 528.472 400.354Q529.747 400.97 530.991 401.647Q532.235 402.324 533.445 403.061Q534.654 403.798 535.826 404.593Q536.998 405.388 538.13 406.24Q539.262 407.091 540.351 407.997Q541.439 408.902 542.483 409.86Q543.526 410.818 544.521 411.826Q545.517 412.833 546.462 413.888Q547.407 414.943 548.299 416.043Q549.191 417.143 550.029 418.285Q550.866 419.427 551.647 420.609Q552.428 421.791 553.15 423.009Q553.872 424.227 554.533 425.48Q555.195 426.732 555.795 428.015Q556.395 429.298 556.931 430.609Q557.468 431.919 557.939 433.255Q558.411 434.59 558.817 435.947Q559.223 437.304 559.562 438.679Q559.902 440.054 560.173 441.444Q560.445 442.834 560.649 444.236Q560.852 445.637 560.987 447.047Q561.122 448.457 561.188 449.872Q561.254 451.286 561.25 452.703Q561.247 454.119 561.174 455.533Q561.102 456.948 560.96 458.357Q560.819 459.766 560.609 461.167Q560.399 462.568 560.12 463.956Q559.842 465.345 559.496 466.718Q559.15 468.092 558.738 469.447Q558.326 470.802 557.847 472.135Q557.369 473.468 556.827 474.776Q556.284 476.084 555.678 477.365Q555.072 478.645 554.405 479.894Q553.737 481.143 553.009 482.358Q552.281 483.573 551.495 484.751Q550.709 485.929 549.866 487.067Q549.023 488.205 548.126 489.301Q547.228 490.396 546.278 491.447Q545.328 492.497 544.328 493.5Q543.328 494.503 542.28 495.456Q541.233 496.409 540.139 497.309Q539.046 498.21 537.91 499.056Q536.775 499.902 535.599 500.692Q534.423 501.481 533.21 502.213Q531.997 502.944 530.75 503.615Q529.503 504.286 528.225 504.896Q526.946 505.505 525.639 506.051Q524.333 506.598 523.001 507.08Q521.669 507.561 520.315 507.978Q518.962 508.394 517.589 508.743Q516.217 509.093 514.829 509.375Q513.441 509.657 512.041 509.871Q510.641 510.086 509.232 510.231Q507.81 510.378 506.382 510.454Q504.954 510.531 503.524 510.537Q502.094 510.543 500.665 510.479Q499.237 510.414 497.813 510.279Q496.39 510.144 494.974 509.94Q493.559 509.735 492.156 509.46Q490.752 509.186 489.364 508.843Q487.976 508.5 486.607 508.088Q485.237 507.677 483.889 507.199Q482.542 506.721 481.219 506.176Q479.897 505.632 478.603 505.024Q477.309 504.415 476.047 503.743Q474.784 503.072 473.557 502.338Q472.329 501.605 471.139 500.813Q469.949 500.02 468.799 499.169Q467.65 498.319 466.543 497.413Q465.437 496.507 464.377 495.547Q463.317 494.587 462.305 493.577Q461.294 492.566 460.333 491.507Q459.372 490.447 458.465 489.342Q457.558 488.237 456.707 487.088Q455.855 485.939 455.061 484.75Q454.267 483.56 453.533 482.333Q452.799 481.106 452.126 479.845Q451.453 478.583 450.843 477.289Q450.233 475.996 449.688 474.674Q449.143 473.352 448.663 472.005Q448.184 470.658 447.771 469.289Q447.359 467.92 447.014 466.532Q446.67 465.144 446.394 463.741Q446.118 462.338 445.912 460.923Q445.706 459.508 445.57 458.084Q445.434 456.661 445.368 455.232Q445.302 453.804 445.307 452.374Q445.312 450.944 445.387 449.516Q445.462 448.088 445.608 446.665Q445.753 445.243 445.969 443.829Q446.184 442.416 446.469 441.014Q446.754 439.613 447.108 438.227Q447.462 436.842 447.883 435.475Q448.305 434.109 448.793 432.765Q449.281 431.421 449.836 430.103Q450.39 428.785 451.008 427.495Q451.626 426.206 452.308 424.949Q452.989 423.691 453.731 422.469Q454.474 421.247 455.275 420.063Q456.077 418.879 456.936 417.736Q457.795 416.593 458.71 415.493Q459.624 414.394 460.592 413.341Q461.559 412.288 462.577 411.284Q463.596 410.28 464.662 409.328Q465.729 408.375 466.841 407.476Q467.953 406.578 469.108 405.735Q470.263 404.892 471.459 404.107Q472.654 403.322 473.887 402.597Q475.119 401.872 476.386 401.209Q477.653 400.545 478.951 399.945Q480.249 399.345 481.574 398.81Q482.9 398.275 484.251 397.805Q485.602 397.336 486.974 396.934Q488.346 396.532 489.737 396.198Q491.127 395.864 492.532 395.598Q493.938 395.333 495.354 395.138Q496.771 394.942 498.195 394.817Z"/>
		<path fill="#1A3B3C" d="M529.217 247.081C556.164 246.783 605.271 260.067 628.841 273.417C602.022 273.391 575.164 277.864 549.224 284.34C524.395 291.478 501.535 301.138 479.07 313.872C492.788 290.235 509.623 266.251 529.217 247.081Z"/>
	</g>
	<g/>
</svg>
