<?xml version="1.0" encoding="utf-8" ?>
<svg xmlns="http://www.w3.org/2000/svg" xmlns:xlink="http://www.w3.org/1999/xlink" width="1024" height="1024">
	<g>
		<path fill="#181617" d="M676.701 42.5026C669.965 54.2917 658.007 64.9994 647.029 72.6863C640.697 77.12 633.917 81.0769 627.932 85.9799C622.507 90.423 617.777 96.0602 613.197 101.355C578.934 140.966 555.198 185.914 550.935 238.685C550.569 243.224 548.916 254.063 549.201 258.003C550.517 257.833 550.758 252.347 550.926 251.059C552.242 240.98 556.201 230.692 559.823 221.216C572.513 188.02 588.801 157.316 612.34 130.442C634.664 104.955 665.099 83.0728 696.596 70.4951C704.225 67.4484 712.092 65.3857 719.957 63.0753C730.001 60.1249 741.032 56.7798 751.513 56.2567C752.641 56.2004 752.945 55.9957 753.808 56.8029C745.124 57.9664 722.564 66.2415 713.793 70.3216C653.388 98.4219 609.303 145.695 586.693 208.324C590.658 202.314 593.531 195.66 597.443 189.601C611.26 168.203 629.351 149.01 649.166 133.078C686.584 102.992 735.171 89.2664 782.191 83.9443C795.849 82.3983 810.054 81.0189 823.776 82.513L824.513 83.1973L825.697 83.0612C825.143 83.6874 824.798 83.9842 824.125 84.4357C824.873 85.0459 826.615 85.0508 827.599 85.2043C756.31 88.8881 685.413 119.328 635.083 170.284C641.125 165.918 646.958 161.198 653.17 157.082C698.584 126.993 742.3 114.115 796.518 111.245C820.228 109.99 844.874 109.072 867.945 103.089C875.251 101.194 882.256 98.4905 889.31 95.8339C887.803 99.5683 886.84 102.949 886.417 106.961C885.691 113.845 886.278 120.923 886.562 127.829C887.127 141.546 888.163 155.339 887.802 169.071C886.378 223.197 868.902 265.381 844.323 312.613C888.138 260.247 913.288 190.502 907.17 122.035L906.78 117.848L906.084 117.708L906.725 117.128L906.813 116.512C908.408 120.85 909.323 125.111 910.429 129.577C922.627 178.874 909.991 232.592 889.119 277.765C873.538 311.487 849.896 340.647 821.429 364.316L821.789 364.525L821.886 363.556L822.313 364.12C830.011 359.193 836.398 352.639 843.258 346.655C891.335 304.713 927.079 246.609 940.668 184.029Q941.637 179.406 942.428 174.749L944.983 176.15C940.094 237.587 911.883 294.122 873.587 341.533C861.733 356.209 848.858 370.462 834.473 382.712Q827.281 388.903 819.518 394.362Q811.755 399.82 803.495 404.494C795.369 409.065 786.91 412.971 778.899 417.763C854.041 396.467 907.364 359.514 945.977 290.529Q955.75 273.077 963.78 254.758C964.593 252.929 967.788 243.957 968.696 243.271C966.995 254.755 962.43 266.496 958.419 277.36C944.936 313.88 923.184 353.614 897.686 383.045Q889.227 392.616 879.843 401.283Q870.46 409.95 860.249 417.624C829.988 440.06 794.102 457.271 757.381 465.872C749.736 467.663 741.858 469.379 734.07 470.414C727.057 471.345 719.552 471.186 712.79 473.398C704.84 476 697.998 481.025 690.419 484.401C707.373 484.788 724.106 486.693 741.111 486.226C794.146 484.77 847.714 466.718 886.519 429.582C900.318 416.378 910.219 400.54 919.534 383.982C914.226 401.07 906.128 415.355 894.617 429.056C891.294 433.011 887.047 436.536 884.169 440.806C880.316 446.524 878.271 453.447 874.925 459.484C869.883 468.583 863.583 477.038 857.619 485.543C858.165 486.699 858.596 487.198 858.474 488.512L858.565 488.716C848.151 494.044 843.402 500.917 835.055 508.578C818.568 523.71 795.724 536.157 774.211 541.663C760.716 545.118 747.807 545.544 734.006 545.823C708.04 546.348 682.935 542.128 657.402 537.983C597.018 528.18 553.081 526.022 495.369 549.255C472.362 558.517 447.498 572.243 430.643 590.659C441.5 584.283 452.386 578.089 463.917 572.995C499.706 557.186 541.02 550.038 580.048 552.259C594.991 553.109 610.292 555.008 624.922 558.187C682.292 570.653 750.818 599.091 804.726 561.033C802.278 566.427 785.172 574.068 779.634 576.143C726.734 595.96 668.909 570.475 616.721 560.879C557.163 549.927 494.455 558.646 441.972 589.621C434.808 593.849 426.633 597.812 420.296 603.197C416.877 606.103 414.149 610.351 411.337 613.866C408.438 617.489 405.36 620.935 402.26 624.385C403.217 624.638 424.494 615.033 428.334 613.708Q433.979 611.758 439.769 610.297Q445.56 608.837 451.455 607.878Q457.349 606.919 463.304 606.468Q469.259 606.017 475.231 606.077C506.165 606.449 532.876 618.366 561.525 628.3C607.248 644.155 657.695 649.254 701.31 624.009C714 616.663 724.032 606.381 734.839 596.672C718.329 622.098 692.239 636.852 662.917 643.027C634.953 648.915 604.049 645.982 576.795 637.827C525.588 622.505 488.767 597.671 432.908 616.735C426.053 619.074 419.537 622.174 413.026 625.321C391.226 635.859 389.038 641.282 374.755 660.158C382.363 656.09 389.898 651.959 397.988 648.906C427.776 637.667 460.299 638.605 490.47 647.776C529.761 659.719 563.91 686.48 605.584 690.571C616.379 691.63 626.803 690.784 637.579 690.426C642.581 682.382 648.782 674.928 654.778 667.61Q653.756 670.399 652.543 673.11Q651.331 675.821 649.933 678.441Q648.535 681.062 646.959 683.579Q645.384 686.097 643.637 688.499Q646.982 687.558 650.277 686.452Q653.572 685.346 656.807 684.077Q660.042 682.808 663.211 681.38Q666.379 679.952 669.472 678.368Q672.565 676.784 675.576 675.048Q678.586 673.312 681.507 671.428Q684.427 669.544 687.25 667.518Q690.073 665.491 692.792 663.326C699.283 658.164 705.349 652.441 711.938 647.413C693.842 669.716 667.005 688.535 638.467 694.162C617.97 715.802 596.555 730.527 565.749 731.316C533.543 732.14 502.738 718.544 472.998 707.952C450.718 700.017 428.031 693.189 404.274 691.908C389.181 691.093 374.083 692.597 359.832 697.821C349.813 701.493 339.206 706.161 331.698 713.984C320.249 725.912 311.26 740.4 300.335 752.838C342.815 731.064 380.803 726.798 427.357 737.809C434.254 739.441 441.307 740.962 448.06 743.123C503.562 760.883 562.61 785.416 619.294 756.685C624.858 753.865 630.914 750.522 635.812 746.628C639.335 743.828 648.665 734.451 651.791 733.092C633.319 756.1 607.456 769.96 578.198 773.179C488.316 783.065 419.858 711.126 325.789 746.213C306.118 753.55 292.875 760.511 279.427 777.257C267.691 791.87 256.422 806.675 244.156 820.876C282.252 800.641 327.652 794.485 370.117 801.676C393.278 805.598 415.803 812.82 438.237 819.608C470.977 829.513 504.377 839.027 538.704 831.436C558.07 827.154 574.2 817.085 591.032 807.191C568.364 828.463 540.775 839.637 509.528 838.735C486.235 838.062 463.695 831.939 441.499 825.343C383.442 808.091 339.24 793.451 278.689 811.326C263.369 815.848 246.596 821.841 234.782 832.936C230.697 836.772 227.124 841.199 223.467 845.44C277.17 829.149 327.14 852.207 374.144 876.381C399.662 889.506 426.91 903.863 456.423 903.525C473.458 903.33 490.524 897.074 505.936 890.185C485.908 904.75 463.207 909.833 438.75 906.009C415.459 902.367 394.08 891.484 373.324 880.871C334.703 861.123 293.186 840.451 248.513 845.064C237.669 846.183 225.705 847.921 216.632 854.408C214.011 856.282 207.069 861.676 206.329 864.666C206.407 865.111 206.317 864.868 206.715 865.338L207.56 865.46C207.762 865.481 207.964 865.51 208.167 865.524C209.132 865.592 209.966 865.473 210.921 865.348L211.468 865.911L211.003 868.614C204.723 870.791 198.826 874.062 193.249 877.638C198.157 876.256 203.402 875.255 208.464 874.626C244.459 870.154 278.911 882.509 307.01 904.725Q310.72 907.71 314.299 910.852Q317.877 913.994 321.317 917.286Q324.756 920.579 328.051 924.017Q331.346 927.455 334.49 931.032Q337.634 934.609 340.621 938.317Q343.608 942.026 346.432 945.859Q349.257 949.693 351.914 953.645Q354.571 957.597 357.055 961.659C358.51 964.036 361.661 967.893 361.951 970.443L361.464 969.61L361.263 970.164L361.209 969.637C335.045 935.285 306.23 901.424 264.666 885.691C243.561 877.702 223.054 876.387 201.109 881.002C196.176 882.039 190.873 883 186.294 885.133C186.122 885.213 185.952 885.3 185.781 885.383C191.472 884.89 197.121 884.3 202.843 884.654C218.162 885.602 235.73 892.085 248.578 900.364C266.743 912.071 280.48 931.429 285.106 952.565C276.406 934.392 265.382 917.18 248.497 905.565Q247.561 904.919 246.61 904.297Q245.658 903.675 244.692 903.076Q243.725 902.477 242.744 901.903Q241.763 901.328 240.768 900.777Q239.774 900.227 238.766 899.701Q237.758 899.175 236.737 898.675Q235.716 898.174 234.683 897.698Q233.651 897.223 232.607 896.773Q231.563 896.323 230.508 895.899Q229.453 895.474 228.388 895.076Q227.323 894.678 226.248 894.307Q225.174 893.935 224.091 893.59Q223.007 893.245 221.916 892.926Q220.825 892.608 219.726 892.317Q218.627 892.025 217.521 891.761Q216.415 891.497 215.303 891.26Q214.191 891.023 213.074 890.813Q211.956 890.604 210.834 890.422Q209.712 890.24 208.585 890.085Q207.459 889.931 206.329 889.804Q205.199 889.678 204.067 889.579Q202.934 889.481 201.799 889.41Q200.664 889.339 199.528 889.296Q198.392 889.253 197.255 889.239Q196.119 889.224 194.982 889.237Q193.845 889.25 192.709 889.291Q191.572 889.332 190.438 889.401Q189.303 889.47 188.17 889.568Q187.037 889.664 185.907 889.789Q184.777 889.914 183.65 890.067Q182.524 890.219 181.401 890.4Q180.279 890.58 179.161 890.788C170.323 898.131 162.475 906.804 154.035 914.617Q138.482 929.191 122.077 942.799Q105.672 956.407 88.4749 969C79.7428 975.485 71.0086 982.473 61.3154 987.469C60.1431 985.696 59.1732 983.798 58.161 981.93C86.6503 963.5 113.525 940.972 138.8 918.441C146.573 911.513 155.271 904.545 162.25 896.875C172.889 885.185 173.789 848.316 173.004 833.177C174.142 831.798 175.24 830.283 176.658 829.185C180.175 848.935 175.734 869.563 170.942 888.716C176.784 883.156 181.98 878.073 185.586 870.724C199.964 841.425 204.635 808.434 193.63 777.17C184.227 750.459 169.163 733.451 143.854 721.208C144.956 720.494 146.393 719.956 147.58 719.371C165.162 724.66 181.54 743.346 189.941 759.001C205.928 788.791 207.015 820.139 197.28 852.035Q194.714 860.418 191.303 868.494C208.576 851.201 221.037 841.688 227.01 816.763Q228.714 809.538 229.562 802.164Q230.41 794.79 230.39 787.367Q230.412 784.498 230.231 781.635C231.291 780.711 232.12 779.207 232.912 778.033C232.898 778.823 232.925 779.508 233.008 780.302C233.261 780.143 233.609 778.61 233.725 778.234C234.236 781.246 234.093 784.668 234.131 787.726C234.315 802.764 231.726 816.07 227.349 830.36C235.941 822.148 260.908 793.572 265.485 783.2C270.054 772.848 270.474 760.056 270.45 748.892C270.331 694.51 239.412 660.093 212.622 616.908C190.191 580.748 175.118 539.887 179.291 496.646C180.207 497.082 181.042 497.462 181.888 498.02C180.998 509.831 181.936 521.99 183.751 533.667C198.601 629.17 288.144 667.544 272.467 775.382C280.664 767.238 298.653 745.759 304.02 735.661C309.685 725.001 311.545 711.997 312.334 700.076C315.243 656.152 295.043 617.635 273.764 580.824C260.536 557.942 249.135 539.403 241.34 513.755C221.8 449.466 224.585 373.147 256.685 313.153C256.759 313.105 256.838 313.062 256.908 313.007C258.388 311.832 258.96 311.171 260.902 310.944C250.368 335.048 236.398 368.401 236.774 395.021C236.995 410.633 241.313 426.024 246.974 440.482C259.655 472.867 283.242 498.597 302.829 526.754C336.314 574.89 355.626 638.756 336.801 696.387L354.522 674.005C359.534 667.719 365.057 661.468 368.983 654.421C372.342 648.391 373.865 641.106 375.39 634.411C380.972 609.916 382.422 586.414 379.481 561.464C376.563 536.7 368.809 513.79 359.254 490.867C355.837 482.667 351.791 474.503 348.705 466.207C348.598 466.069 348.479 465.94 348.384 465.794C345.066 460.663 342.405 452.794 339.894 447.111C325.614 414.795 317.533 383.835 323.415 348.34C324.106 344.168 329.152 324.229 332.398 321.901L332.507 322.642C321.734 347.575 322.955 378.088 328.513 404.13C334.766 429.14 346.992 451.562 357.467 474.925C381.949 529.53 397.437 588.766 376.217 647.231C380.46 642.372 384.796 637.299 387.834 631.575C390.989 625.629 392.914 618.94 394.894 612.525C402.306 588.502 406.491 564.582 406.991 539.387C407.17 530.42 406.336 521.574 406.106 512.634C406.691 511.206 407.083 509.32 406.551 507.828C406.357 507.281 406.107 506.755 405.923 506.204L406.88 504.954C407.56 504.831 408.044 504.692 408.678 504.393C408.87 504.302 409.058 504.203 409.247 504.107C410.797 508.883 410.566 517.267 410.82 522.46C412.49 556.697 408.026 588.711 396.622 621.029C417.489 600.363 428.204 576.877 438.211 549.824C442.711 537.66 445.979 525.215 448.778 512.562C462.724 449.514 451.866 397.893 437.52 336.322C430.031 304.183 422.544 269.925 427.816 236.836C433.249 202.741 454.811 173.38 483.681 155.063C489.783 151.191 501.518 147.213 505.724 143.028C510.911 137.867 514.69 130.881 519.268 125.122C531.844 109.299 546.432 93.3381 562.847 81.4237C543.082 104.717 520.443 126.258 505.318 153.109C501.458 159.96 498.318 167.335 495.312 174.596C473.371 227.604 471.67 279.307 487.409 334.331C490.226 344.181 493.145 354.616 497.074 364.078C496.261 356.714 494.114 349.596 492.828 342.312C490.86 331.164 489.807 319.12 489.716 307.797C489.162 239.246 507.332 178.841 558.076 130.83C572.75 116.946 588.859 105.382 605.497 94.006C620.24 83.926 636.382 76.0658 650.947 65.6165C660.376 58.8513 668.601 50.7681 676.701 42.5026ZM531.923 465.703C540.126 456.517 548.765 447.77 557.257 438.856C536.799 413.419 529.095 391.602 532.768 358.638C538.045 311.29 566.677 270.494 603.248 241.428C642.399 210.311 695.842 192.811 745.851 198.601C759.762 200.212 773.441 203.865 787.408 204.87C791.046 226.294 800.417 250.544 800.595 271.701C804.12 319.887 778.028 379.449 747.075 415.375C721.641 444.896 681.668 469.72 642.36 472.71C614.578 474.824 587.763 467.231 566.618 448.721C564.12 446.534 561.666 444.207 559.321 441.857C550.595 449.863 541.815 459.538 534.447 468.82C559.842 490.946 587.496 499.156 620.989 496.71C678.935 492.478 731.261 460.741 768.512 417.261C811.91 366.604 838.395 297.85 833.016 230.8C831.798 215.614 828.352 200.779 825.818 185.786C824.723 179.311 824.756 172.411 823.305 166.06C816.051 166.092 808.837 166.579 801.579 166.308C791.869 165.944 781.759 164.742 772.077 165.217C759.948 165.909 747.802 166.527 735.759 168.204C664.423 178.137 606.559 209.999 558.579 263.472Q556.979 265.252 555.423 267.07Q553.867 268.889 552.357 270.746Q550.846 272.602 549.382 274.495Q547.918 276.388 546.501 278.317Q545.083 280.246 543.714 282.209Q542.345 284.172 541.025 286.168Q539.704 288.164 538.433 290.192Q537.163 292.22 535.942 294.279Q534.722 296.338 533.552 298.426Q532.383 300.514 531.266 302.63Q530.148 304.747 529.083 306.89Q528.018 309.034 527.006 311.202Q525.995 313.371 525.036 315.565Q524.078 317.758 523.175 319.974Q522.271 322.19 521.422 324.428Q520.573 326.666 519.78 328.924Q518.986 331.182 518.249 333.458Q517.511 335.735 516.83 338.03Q516.149 340.324 515.525 342.634Q514.9 344.945 514.333 347.27Q513.766 349.595 513.256 351.934Q512.746 354.272 512.294 356.622Q511.842 358.972 511.448 361.333Q511.054 363.694 510.718 366.064Q510.383 368.433 510.106 370.81Q509.828 373.188 509.61 375.571Q509.391 377.954 509.232 380.342Q509.072 382.73 508.971 385.122Q508.871 387.513 508.829 389.906Q508.787 392.299 508.804 394.692Q508.822 397.085 508.898 399.477Q508.974 401.869 509.109 404.259C510.459 427.181 516.848 448.081 531.923 465.703ZM650.618 500.468C706.668 512.347 764.107 513.104 819.544 497.925C828.516 495.469 841.098 492.615 848.904 487.669C858.193 481.782 867.465 464.186 872.619 454.394C873.601 452.528 875.275 450.303 875.699 448.276L875.497 448.09C868.493 453.245 862.327 459.407 855.03 464.155C806.196 495.925 750.272 504.548 692.901 502.364C676.288 501.732 659.735 499.121 643.136 498.799L650.618 500.468ZM655.781 519.526C701.036 537.071 749.83 549.52 796.436 528.889C809.783 522.98 825.943 512.897 835.215 501.505L834.865 501.097C825.142 504.465 815.877 508.9 806.067 512.098C768.622 524.307 726.775 529.824 687.604 524.631C677.571 523.301 667.696 520.916 657.909 518.386C654.207 517.429 649.794 515.356 646.084 515.039C649.314 516.535 652.531 518.076 655.781 519.526ZM632.277 695.056C615.938 696.429 599.74 695.421 583.839 691.285C542.506 680.533 508.288 653.264 465.229 646.577C456.548 645.229 447.281 644.445 438.504 645.202C409.397 647.31 376.98 658.444 357.501 681.165C352.484 687.016 347.715 693.255 343.065 699.403C352.423 695.795 361.871 691.665 371.708 689.592C383.035 687.205 395.209 687.036 406.715 687.893C437.426 690.18 465.611 700.6 494.327 710.906C506.131 715.142 517.932 719.546 530.108 722.619C558.922 728.83 585.646 729.358 611.309 712.693C618.841 707.802 626.259 701.744 632.277 695.056ZM322.028 715.192C325.502 710.574 328.691 706.11 330.989 700.763C340.112 679.539 341.116 645.932 337.922 623.182C331.689 578.801 311.007 544.498 284.597 509.335C272.426 493.128 259.867 476.998 250.346 459.036Q246.65 452.219 243.656 445.065Q240.662 437.912 238.399 430.495C237.471 427.466 235.199 414.205 233.73 412.867C233.864 420.184 233.459 427.479 233.712 434.801C234.756 465.148 239.344 496.237 249.906 524.824C257.971 546.654 270.12 565.341 281.727 585.304C307.779 630.109 325.892 675.346 312.116 727.819C315.34 723.671 318.478 719.035 322.028 715.192ZM508.744 351.872L509.326 353.571C510.259 352.519 510.281 350.536 510.412 349.138C511.344 339.195 511.505 329.167 512.253 319.206C513.198 306.611 514.756 294.014 516.425 281.498C523.463 228.724 540.083 175.408 572.601 132.602C572.533 132.386 572.527 132.11 572.349 131.97C566.073 138.109 560.389 145.19 554.894 152.035C520.654 194.688 506.409 241.347 505.741 295.885C505.598 307.542 506.334 319.219 506.969 330.854C507.345 337.739 507.28 345.138 508.744 351.872ZM864.407 214.247C868.539 194.942 871.169 174.971 873.005 155.3C873.523 149.748 873.656 144.171 874.202 138.619C874.656 134.012 876.524 124.22 875.705 120.352C868.637 136.785 865.188 156.003 864.538 173.871C864.227 182.401 864.635 190.958 864.529 199.492C864.485 203.072 862.866 210.845 864.178 213.858C864.238 213.996 864.331 214.117 864.407 214.247ZM900.598 365.956C868.618 402.41 824.375 425.897 778.314 439.608C775.641 440.403 753.872 446.267 753.525 447.315C803.752 439.743 855.663 417.78 890.189 379.521C893.06 376.339 896.198 373.135 898.754 369.709C899.653 368.505 900.72 367.495 900.598 365.956ZM506.273 501.182C513.121 492.984 520.729 485.222 527.252 476.79C527.049 476.455 526.886 476.083 526.609 475.805C523.643 479.7 506.324 498.188 505.788 500.598L506.273 501.182ZM499.193 151.605C472.772 163.065 448.747 187.981 438.04 214.775C417.832 265.346 441.978 332.174 452.399 383.078Q455.284 397.875 457.069 412.844Q458.854 427.814 459.528 442.874C461.212 490.188 451.967 530.307 432.928 573.324C431.225 577.34 429.507 581.293 427.473 585.157C436.718 573.625 442.642 561.487 448.542 548.05C469.121 501.18 475.456 451.765 469.856 401.033C467.116 376.215 462.513 351.594 459.908 326.776C456.902 298.127 457.173 268.618 462.305 240.225C467.865 209.468 478.826 180.06 497.38 154.715C497.999 153.869 499.306 152.61 499.193 151.605ZM666.021 271.684C636.586 275.314 607.104 292.855 588.906 316.166C580.878 326.45 574.435 338.983 576.218 352.399C578.985 373.218 603.645 399.33 620.046 411.666C626.426 416.466 633.639 420.79 641.271 423.26C655.291 426.463 666.39 423.945 678.546 416.27C702.669 401.039 720.714 374.087 726.742 346.315C730.484 329.072 729.907 309.687 720.017 294.497C712.472 282.908 699.754 275.083 686.295 272.383C679.847 271.09 672.524 270.759 666.021 271.684Z"/>
		<path d="M348.705 466.207C348.598 466.069 348.479 465.94 348.384 465.794C345.066 460.663 342.405 452.794 339.894 447.111C325.614 414.795 317.533 383.835 323.415 348.34C324.106 344.168 329.152 324.229 332.398 321.901L332.507 322.642C321.734 347.575 322.955 378.088 328.513 404.13L327.809 404.472C326.912 400.942 326.028 397.34 325.362 393.758C325.179 392.774 325.284 390.23 324.821 389.512C324.656 389.256 324.311 389.18 324.055 389.013C320.733 400.378 339.506 446.458 345.66 457.726C347.023 460.221 348.061 462.729 349.072 465.386L348.705 466.207Z"/>
		<path fill="#181617" d="M662.506 286.191C668.895 285.386 676.247 286.212 682.437 287.932Q683.398 288.196 684.344 288.507Q685.29 288.819 686.22 289.177Q687.149 289.535 688.06 289.939Q688.97 290.344 689.86 290.793Q690.749 291.242 691.614 291.735Q692.48 292.228 693.32 292.764Q694.16 293.3 694.972 293.876Q695.784 294.453 696.567 295.07Q697.349 295.687 698.099 296.342Q698.85 296.997 699.567 297.689Q700.284 298.381 700.965 299.107Q701.647 299.834 702.291 300.594Q702.935 301.354 703.541 302.145Q704.146 302.936 704.712 303.756Q705.277 304.576 705.801 305.424Q706.324 306.271 706.805 307.144C714.944 321.889 714.153 340.727 709.483 356.419C704.158 374.309 691.721 395.062 674.802 404.112C666.248 408.688 657.139 409.547 647.871 406.749C642.283 404.883 637.143 401.668 632.515 398.071C617.85 386.67 596.688 363.569 594.37 344.491C593.187 334.758 597.005 325.76 602.983 318.276C617.293 300.361 639.908 288.756 662.506 286.191Z"/>
		<path fill="#181617" fill-opacity="0.98823529" d="M526.609 475.805C526.886 476.083 527.049 476.455 527.252 476.79C520.729 485.222 513.121 492.984 506.273 501.182L505.788 500.598C506.324 498.188 523.643 479.7 526.609 475.805Z"/>
		<path d="M168.706 488.294C162.203 504.169 155.823 513.905 151.75 531.579C127.85 635.274 226.106 685.174 233.725 778.234C233.609 778.61 233.261 780.143 233.008 780.302C232.925 779.508 232.898 778.823 232.912 778.033C232.12 779.207 231.291 780.711 230.231 781.635C225.431 737.457 203.874 703.663 180.958 666.768C165.16 641.334 149.764 615.662 145.052 585.554Q144.814 583.968 144.615 582.376Q144.415 580.785 144.255 579.189Q144.094 577.593 143.972 575.994Q143.85 574.395 143.766 572.793Q143.683 571.192 143.639 569.588Q143.594 567.985 143.588 566.381Q143.583 564.777 143.616 563.174Q143.649 561.57 143.721 559.968Q143.793 558.366 143.903 556.766Q144.014 555.166 144.164 553.569Q144.313 551.972 144.501 550.379Q144.689 548.786 144.916 547.198Q145.142 545.611 145.407 544.029Q145.672 542.447 145.975 540.872Q146.278 539.297 146.619 537.73Q146.961 536.163 147.34 534.604Q147.719 533.046 148.135 531.497Q148.552 529.948 149.006 528.41Q149.46 526.871 149.951 525.345Q150.442 523.818 150.97 522.303Q151.498 520.789 152.063 519.287Q152.627 517.786 153.228 516.299Q153.828 514.812 154.465 513.34Q155.101 511.867 155.773 510.411Q156.445 508.955 157.152 507.515Q157.859 506.076 158.601 504.653Q159.342 503.231 160.118 501.828Q160.894 500.424 161.704 499.039Q162.513 497.655 163.356 496.29Q164.199 494.926 165.075 493.582Q165.95 492.238 166.858 490.916Q167.766 489.594 168.706 488.294Z"/>
		<path d="M406.106 512.634C402.766 483.095 396.168 455.154 386.987 426.914C372.992 383.863 352.989 345.578 354.985 298.975C355.826 279.348 363.69 260.426 375.767 245.068C377.798 242.486 379.801 239.751 382.23 237.531C382.69 237.909 381.453 239.429 381.124 239.913C376.996 245.991 373.426 252.3 370.094 258.841C360.266 278.135 357.374 297.717 359.324 319.153C362.344 352.366 376.423 383.44 387.433 414.525C397.688 443.477 405.854 473.529 409.247 504.107C409.058 504.203 408.87 504.302 408.678 504.393C408.044 504.692 407.56 504.831 406.88 504.954L405.923 506.204C406.107 506.755 406.357 507.281 406.551 507.828C407.083 509.32 406.691 511.206 406.106 512.634Z"/>
		<path d="M207.56 865.46C211.119 863.326 215.823 862.287 219.832 861.329C237.663 857.064 255.729 856.494 273.575 860.934C305.894 868.976 336.908 891.112 354.083 919.877C356.249 923.505 358.162 927.28 360.075 931.046C353.099 923.135 346.862 914.655 339.685 906.888C316.844 882.168 287.649 864.509 253.45 862.333C240.261 861.493 223.132 862.998 211.003 868.614L211.468 865.911L210.921 865.348C209.966 865.473 209.132 865.592 208.167 865.524C207.964 865.51 207.762 865.481 207.56 865.46Z"/>
		<path d="M173.004 833.177Q172.671 830.476 172.23 827.791Q171.789 825.106 171.241 822.441Q170.692 819.775 170.037 817.134Q169.382 814.493 168.621 811.88Q167.86 809.268 166.995 806.688Q166.13 804.108 165.162 801.565Q164.194 799.022 163.125 796.519Q162.055 794.017 160.886 791.56Q159.717 789.103 158.45 786.695Q157.183 784.286 155.82 781.931Q154.458 779.576 153.002 777.277Q151.545 774.978 149.998 772.74Q148.451 770.501 146.815 768.327Q145.179 766.153 143.457 764.046Q141.734 761.939 139.929 759.903Q138.124 757.867 136.238 755.905C133.707 753.284 131.153 750.629 128.458 748.176C125.538 745.519 121.344 743.016 119.189 739.729C122.138 740.207 128.429 745.385 130.896 747.289C154.935 765.838 172.94 799.237 176.658 829.185C175.24 830.283 174.142 831.798 173.004 833.177Z"/>
		<path d="M179.291 496.646C180.462 475.094 186.619 454.683 195.854 435.288C198.41 429.92 200.934 424.274 204.833 419.717L204.471 420.815L204.603 420.656C192.338 445.032 182.263 470.258 181.888 498.02C181.042 497.462 180.207 497.082 179.291 496.646Z"/>
		<path d="M256.685 313.153C261.034 303.466 267.03 293.952 272.91 285.121C269.207 293.875 265.076 302.408 260.902 310.944C258.96 311.171 258.388 311.832 256.908 313.007C256.838 313.062 256.759 313.105 256.685 313.153Z"/>
		<path d="M143.854 721.208C136.988 718.475 129.815 716.586 123.008 713.791C127.249 712.566 143.142 717.613 147.58 719.371C146.393 719.956 144.956 720.494 143.854 721.208Z"/>
		<path d="M879.686 477.19C872.991 481.56 866.049 485.827 858.565 488.716L858.474 488.512C858.596 487.198 858.165 486.699 857.619 485.543C865.106 483.298 872.414 480.061 879.686 477.19Z"/>
		<path d="M823.776 82.513C830.377 82.5944 837.141 82.7 843.699 83.4886L843.469 83.8153L844.629 83.7113L844.659 83.7889L827.599 85.2043C826.615 85.0508 824.873 85.0459 824.125 84.4357C824.798 83.9842 825.143 83.6874 825.697 83.0612L824.513 83.1973L823.776 82.513Z"/>
		<path d="M944.903 161.23C945.128 166.218 945.081 171.162 944.983 176.15L942.428 174.749Q943.519 167.963 944.903 161.23Z"/>
	</g>
	<g/>
</svg>
