<svg xmlns="http://www.w3.org/2000/svg" version="1.0" width="1024.000000pt" height="1024.000000pt" viewBox="0 0 1024.000000 1024.000000" preserveAspectRatio="xMidYMid meet">

<g transform="translate(0.000000,1024.000000) scale(0.100000,-0.100000)" fill="#ffffff" stroke="none" style="&#10;    /* background: black; */&#10;">
<path d="M6700 9141 c-281 -101 -547 -276 -765 -502 -367 -381 -541 -799 -586 -1408 -12 -155 -9 -324 11 -691 6 -124 6 -251 -1 -385 -15 -311 -24 -337 -24 -75 -1 189 -6 281 -28 470 -78 680 -83 911 -27 1240 79 465 262 843 604 1254 37 44 64 81 61 84 -16 16 -211 -170 -318 -303 -260 -322 -417 -694 -484 -1140 -14 -95 -18 -182 -18 -415 1 -300 1 -303 56 -760 26 -220 36 -597 20 -770 -20 -214 -79 -464 -145 -612 -16 -35 -55 -85 -116 -148 l-91 -94 21 54 c36 91 69 208 93 330 19 100 22 148 22 370 0 288 -4 321 -100 830 -99 525 -128 817 -106 1078 31 386 138 688 340 957 33 44 57 82 54 85 -9 8 -166 -165 -226 -248 -164 -230 -257 -505 -287 -852 -22 -248 5 -535 95 -1025 97 -522 109 -622 109 -900 0 -219 -3 -252 -27 -375 -32 -162 -50 -222 -108 -360 -43 -103 -46 -107 -172 -235 l-128 -130 22 55 c136 345 170 760 93 1150 -33 169 -59 264 -169 615 -152 482 -179 608 -179 840 0 252 45 456 149 682 19 42 33 78 31 80 -6 6 -55 -68 -99 -147 -131 -238 -193 -542 -168 -823 14 -167 46 -311 131 -602 95 -322 174 -633 200 -785 27 -159 36 -400 21 -545 -25 -230 -88 -460 -172 -629 -37 -75 -57 -99 -221 -262 -99 -98 -177 -170 -173 -159 62 173 80 285 80 495 0 215 -12 283 -81 489 -56 167 -132 326 -280 593 -129 231 -197 376 -243 518 -131 407 -122 740 33 1139 46 120 43 146 -9 66 -80 -124 -169 -350 -202 -513 -28 -139 -24 -364 10 -523 49 -235 106 -370 332 -799 242 -459 319 -677 341 -966 13 -176 -27 -425 -95 -585 -30 -68 -47 -90 -225 -273 l-193 -199 28 84 c93 280 75 575 -55 884 -55 129 -124 250 -285 499 -237 364 -314 536 -352 779 -18 119 -6 367 24 497 16 67 22 109 16 115 -14 14 -24 -6 -63 -125 -93 -283 -96 -528 -10 -787 51 -154 107 -259 307 -573 232 -364 325 -565 362 -777 39 -223 0 -517 -94 -700 -25 -50 -297 -325 -287 -291 38 132 48 187 53 290 14 299 -81 551 -349 930 -220 311 -304 498 -344 770 -18 121 -15 278 6 375 6 29 10 63 8 75 -4 21 -5 20 -19 -12 -42 -95 -76 -327 -65 -444 28 -306 95 -476 324 -824 276 -418 353 -629 339 -926 -6 -136 -31 -244 -78 -346 -25 -54 -52 -88 -146 -181 -64 -63 -112 -105 -108 -94 56 153 70 239 62 388 -8 144 -27 219 -87 344 -55 116 -89 169 -167 256 -99 113 -286 257 -332 257 -11 0 -21 -2 -21 -4 0 -2 58 -62 128 -133 284 -285 411 -579 382 -887 -13 -130 -33 -204 -87 -316 l-46 -94 -470 -479 c-259 -263 -481 -492 -494 -510 -28 -38 -29 -63 -3 -77 14 -8 26 -7 43 1 12 6 240 228 507 493 478 476 486 483 565 519 217 99 464 111 691 33 216 -74 362 -177 505 -357 39 -49 76 -89 81 -89 21 0 -4 66 -55 148 -135 217 -321 355 -563 419 -171 45 -385 34 -545 -27 -30 -11 -56 -20 -58 -20 -2 0 52 53 119 118 127 122 180 156 300 197 115 39 192 48 339 42 225 -10 393 -61 625 -189 322 -179 499 -254 658 -279 88 -14 249 -6 333 16 64 16 168 55 163 61 -2 2 -44 -4 -93 -13 -118 -20 -317 -13 -430 17 -98 25 -246 97 -465 225 -294 173 -412 222 -602 251 -175 27 -396 6 -541 -51 -32 -13 -14 8 115 135 147 144 158 153 264 205 140 69 237 95 384 102 273 13 504 -48 870 -228 361 -178 511 -229 730 -250 152 -15 287 4 429 59 87 34 240 127 228 138 -2 2 -43 -14 -90 -36 -118 -55 -221 -81 -353 -87 -258 -13 -422 38 -886 275 -369 188 -502 227 -788 226 -190 0 -294 -17 -420 -67 -33 -14 -60 -22 -60 -18 0 3 78 83 173 178 112 111 191 182 227 201 211 117 461 167 718 143 246 -22 393 -63 697 -193 362 -155 509 -205 680 -233 221 -36 442 -3 650 99 104 51 225 130 225 147 0 4 -46 -14 -102 -41 -209 -99 -382 -138 -571 -127 -218 13 -406 73 -802 257 -361 167 -511 205 -810 204 -211 0 -333 -19 -472 -74 -40 -15 -73 -27 -73 -26 0 1 72 75 161 164 l160 162 122 60 c205 101 404 138 685 127 267 -10 370 -33 809 -178 353 -116 467 -145 621 -158 259 -23 481 31 708 172 81 51 217 158 209 165 -2 2 -46 -21 -98 -52 -250 -144 -401 -189 -642 -190 -216 -1 -264 12 -857 217 -154 54 -297 96 -380 113 -121 25 -153 28 -358 28 -199 1 -238 -2 -335 -22 -60 -13 -149 -38 -197 -56 l-87 -33 28 36 c67 84 217 217 287 254 111 57 240 104 360 129 96 20 137 22 349 22 256 0 351 -9 660 -64 371 -66 566 -85 799 -77 192 6 308 24 476 72 201 58 383 147 573 282 84 60 337 302 337 323 0 6 -35 -17 -77 -53 -335 -277 -634 -420 -1018 -488 -235 -41 -571 -21 -1010 60 -313 58 -383 65 -650 65 -165 1 -275 -3 -325 -12 -68 -12 -270 -62 -316 -78 -10 -4 8 21 41 56 48 50 80 72 160 110 178 85 398 151 635 190 190 31 410 36 720 15 688 -46 1160 26 1664 254 184 84 377 221 517 368 76 80 179 217 179 238 0 4 -56 -47 -125 -113 -262 -254 -578 -419 -1030 -537 -180 -47 -334 -73 -510 -86 -168 -13 -530 -7 -760 11 -239 19 -499 7 -760 -36 -88 -15 -20 8 109 37 210 46 330 58 721 74 488 21 717 52 1022 139 606 174 1104 516 1393 956 116 178 240 471 240 566 -1 36 -7 27 -78 -111 -142 -276 -249 -431 -412 -599 -318 -328 -680 -540 -1152 -676 -139 -40 -406 -95 -416 -86 -2 3 9 8 24 12 220 50 593 218 834 376 340 222 575 463 771 788 189 315 322 774 318 1095 l-1 80 -18 -60 c-10 -33 -41 -145 -70 -250 -124 -451 -285 -778 -525 -1070 -84 -101 -254 -272 -334 -334 -37 -29 -28 -16 57 90 219 273 365 528 513 901 116 290 179 708 165 1083 -4 99 -11 198 -15 220 l-7 40 -6 -40 c-35 -221 -104 -613 -124 -704 -43 -193 -145 -469 -199 -543 l-17 -23 6 25 c15 61 57 317 71 440 31 259 30 722 -1 803 -7 19 -61 23 -584 39 -234 7 -418 13 -410 15 36 5 396 68 619 109 394 72 365 78 -188 39 -447 -31 -608 -49 -793 -86 -270 -53 -548 -162 -743 -289 -183 -120 -427 -351 -575 -544 -33 -43 -60 -75 -60 -71 0 27 150 305 203 375 172 227 446 439 792 615 254 129 478 206 794 273 175 37 176 37 111 40 -165 8 -494 -45 -704 -113 -219 -71 -477 -200 -666 -333 -121 -85 -364 -327 -449 -447 -89 -128 -199 -355 -259 -537 -27 -84 -81 -274 -119 -423 -77 -304 -82 -305 -64 -22 12 183 30 315 62 465 69 318 235 642 471 917 199 232 357 352 771 584 97 55 66 56 -83 2z m1147 -962 c151 -12 302 -34 314 -46 11 -11 39 -313 39 -419 0 -404 -151 -915 -379 -1283 -180 -291 -481 -592 -718 -718 -106 -57 -269 -110 -395 -129 -203 -31 -406 3 -603 101 -60 30 -132 71 -158 90 l-49 37 94 88 93 88 25 -20 c156 -120 255 -174 371 -202 92 -23 244 -21 348 4 328 79 691 437 889 877 80 178 148 419 172 613 19 155 10 380 -21 528 -10 50 -14 55 -52 72 -78 34 -229 52 -432 53 -336 1 -612 -58 -885 -189 -319 -153 -566 -382 -690 -638 -104 -217 -113 -448 -24 -675 34 -84 105 -205 164 -278 l47 -57 -61 -81 c-34 -45 -68 -92 -77 -105 l-16 -24 -67 84 c-71 89 -159 256 -195 369 -82 256 -62 548 54 787 232 477 717 841 1325 994 312 79 591 104 887 79z m-935 -823 c96 -21 173 -62 248 -133 195 -183 222 -428 81 -718 -117 -238 -308 -413 -489 -447 -208 -39 -473 102 -624 331 -124 189 -125 407 -3 591 122 184 378 348 590 379 89 13 123 12 197 -3z"/>
<path d="M6674 7180 c-114 -24 -259 -106 -342 -194 -152 -160 -167 -398 -36 -568 40 -51 141 -130 211 -164 53 -26 68 -29 163 -29 93 0 112 3 162 27 111 52 216 181 279 342 80 205 55 362 -78 487 -74 70 -148 102 -243 105 -41 2 -93 -1 -116 -6z"/>
</g>
</svg>