<svg xmlns="http://www.w3.org/2000/svg" version="1.0" width="408.000000pt" height="612.000000pt" viewBox="0 0 408.000000 612.000000" preserveAspectRatio="xMidYMid meet">

<g transform="translate(0.000000,612.000000) scale(0.100000,-0.100000)" fill="#ffffff" stroke="none">
<path d="M2180 5259 c-39 -60 -74 -144 -96 -230 -13 -50 -15 -92 -11 -189 6 -142 24 -210 93 -359 38 -80 41 -91 21 -77 -63 45 -128 76 -157 76 -34 0 -107 -36 -147 -73 -33 -30 -36 -16 -6 28 71 104 123 275 122 400 l0 70 -19 -90 c-24 -111 -50 -185 -107 -297 -60 -117 -228 -366 -240 -355 -13 14 141 467 301 885 20 52 36 97 36 100 -1 13 -70 -112 -119 -213 -79 -162 -221 -573 -266 -770 -26 -116 -61 -205 -79 -205 -13 0 0 287 18 393 26 155 66 308 130 502 35 105 63 191 61 193 -2 2 -26 -45 -54 -103 -90 -185 -151 -386 -187 -615 -15 -96 -17 -196 -11 -475 1 -27 -2 -59 -7 -70 -7 -18 -10 -15 -22 20 -8 21 -24 80 -37 130 -20 83 -22 113 -21 370 0 247 3 292 22 385 25 121 27 141 6 85 -54 -144 -91 -434 -79 -624 10 -178 33 -287 85 -416 26 -63 46 -195 31 -195 -7 0 -70 107 -104 175 -31 63 -73 192 -87 270 -7 33 -15 170 -19 305 -11 339 -26 362 -35 54 -10 -319 9 -445 92 -635 25 -57 110 -196 155 -252 33 -42 62 -97 51 -97 -14 0 -136 105 -195 167 -78 83 -129 158 -179 266 -42 90 -90 243 -90 288 0 15 -4 30 -9 33 -14 9 -1 -134 20 -214 31 -118 118 -284 198 -376 71 -82 106 -113 356 -312 168 -134 226 -186 277 -252 91 -118 118 -196 124 -360 l5 -125 -29 71 c-60 149 -148 276 -292 428 -105 109 -200 188 -410 336 -80 57 -165 119 -190 139 -25 20 -39 27 -31 16 32 -45 175 -173 311 -280 250 -195 373 -322 482 -497 98 -158 158 -321 157 -428 l0 -65 -23 55 c-61 145 -144 266 -266 388 -96 96 -172 157 -355 282 -82 57 -175 124 -205 149 -46 39 -51 41 -33 16 40 -57 159 -162 318 -280 297 -221 451 -407 535 -646 25 -70 30 -99 30 -179 l0 -95 -44 91 c-106 222 -231 358 -490 533 -92 62 -182 125 -200 140 -64 54 -70 55 -28 4 45 -55 127 -123 278 -232 186 -135 322 -299 430 -516 53 -106 55 -113 52 -180 l-3 -70 -34 65 c-97 186 -219 314 -466 485 -38 27 -85 62 -102 79 -18 16 -33 26 -33 20 0 -16 82 -96 225 -220 207 -179 281 -268 377 -452 35 -67 38 -80 37 -150 0 -65 -2 -73 -11 -52 -46 104 -65 137 -105 191 -47 63 -154 158 -208 186 -19 10 -3 -9 42 -51 139 -129 215 -257 252 -423 19 -84 19 -97 6 -184 -15 -105 -55 -240 -91 -311 -13 -26 -24 -50 -24 -53 0 -14 30 -2 55 22 57 56 111 221 135 406 13 107 57 243 110 346 49 93 180 269 290 389 116 127 127 148 35 67 -205 -179 -320 -328 -400 -515 l-20 -45 -3 42 c-10 131 133 416 311 617 31 35 117 116 190 179 117 101 170 155 227 232 8 11 -19 -10 -61 -45 -42 -36 -137 -113 -211 -172 -104 -82 -155 -130 -216 -207 -94 -117 -168 -238 -208 -341 l-29 -74 -3 80 c-2 67 2 95 28 174 85 260 234 466 495 683 197 164 243 207 294 271 75 94 78 113 9 44 -35 -35 -142 -126 -238 -203 -327 -261 -442 -403 -578 -715 -9 -22 -11 -17 -11 36 -1 47 10 94 44 198 91 282 210 444 519 710 197 170 268 251 333 381 33 65 37 95 7 45 -75 -123 -193 -247 -359 -381 -106 -85 -261 -239 -326 -324 -64 -84 -132 -204 -167 -294 -17 -42 -34 -85 -38 -96 -6 -14 -10 1 -12 49 -4 88 31 215 92 341 91 184 188 310 364 471 261 240 334 325 408 472 35 69 69 187 78 267 6 48 5 47 -18 -25 -45 -144 -95 -244 -179 -355 -63 -85 -115 -137 -276 -280 -131 -117 -237 -236 -321 -360 -48 -71 -117 -203 -135 -257 l-8 -23 -4 24 c-7 37 16 151 43 210 41 91 108 172 236 286 139 123 191 181 228 252 14 27 39 67 56 89 108 138 167 295 199 529 22 163 43 265 65 330 11 32 18 60 16 62 -2 2 -18 -29 -35 -69 -35 -77 -63 -179 -81 -293 -24 -150 -62 -282 -110 -381 l-48 -99 -1 79 c-1 43 6 104 14 135 30 119 37 204 39 486 2 260 4 297 23 358 11 37 19 67 17 67 -2 0 -15 -23 -30 -51 -43 -86 -54 -163 -54 -399 0 -186 -13 -386 -26 -399 -13 -14 -19 29 -26 177 -4 92 -19 244 -33 337 -54 350 -58 473 -20 628 2 12 -4 4 -14 -18 -58 -122 -64 -321 -16 -600 14 -82 28 -195 31 -250 l5 -100 -19 35 c-11 19 -25 62 -32 95 -15 72 -74 262 -124 400 -67 182 -80 247 -79 385 0 95 5 141 20 192 23 75 18 81 -14 16 -74 -147 -69 -338 13 -565 71 -196 124 -357 121 -366 -4 -12 -105 130 -166 234 -155 264 -188 505 -102 752 16 46 36 98 45 115 25 48 12 38 -24 -19z m-44 -945 c192 -148 345 -370 388 -561 21 -94 20 -143 -3 -235 -35 -134 -58 -168 -240 -348 -92 -91 -175 -176 -184 -190 -16 -24 -16 -20 -14 89 l2 114 67 23 c159 53 268 182 300 354 23 122 -19 281 -112 424 -55 84 -192 225 -255 262 l-45 26 -46 -27 c-69 -41 -253 -229 -297 -305 -21 -36 -49 -102 -64 -148 -22 -72 -25 -95 -21 -180 4 -83 9 -107 37 -164 55 -116 180 -221 309 -259 l42 -12 0 -119 c0 -65 -2 -118 -5 -118 -2 0 -19 21 -36 48 -18 26 -98 112 -179 192 -195 194 -240 280 -240 460 0 186 84 363 265 558 79 84 221 195 238 185 7 -3 49 -35 93 -69z m28 -422 c74 -33 120 -75 157 -144 29 -56 33 -72 33 -138 0 -124 -57 -220 -171 -286 -39 -23 -61 -29 -134 -32 -77 -4 -93 -1 -142 21 -155 71 -233 235 -182 386 32 98 135 186 250 215 41 10 143 -2 189 -22z" fill="#ffffff"/>
<path d="M1947 3816 c-154 -57 -205 -231 -100 -346 48 -54 99 -69 151 -46 35 16 39 16 70 0 93 -46 206 58 206 188 -1 118 -96 210 -223 215 -39 2 -81 -3 -104 -11z" fill="#ffffff"/>
</g>
</svg>